<svg width="35" height="50" viewBox="0 0 35 50" fill="none" xmlns="http://www.w3.org/2000/svg">
<g clip-path="url(#clip0_1_53)">
<path d="M34.9392 9.80139L31.7617 45.8623L17.4787 49.8737L3.23505 45.8679L0.0608521 9.80139H34.9392Z" fill="#E44D26"/>
<path d="M17.5 46.8075L29.0414 43.5661L31.7566 12.7503H17.5V46.8075Z" fill="#F16529"/>
<path d="M11.323 21.5972H17.5V17.1738H6.55115L6.6556 18.3605L7.72884 30.5503H17.5V26.1269H11.7221L11.323 21.5972ZM12.3071 32.7621H7.92394L8.53562 39.7075L17.4799 42.2227L17.5 42.2172V37.615L17.4809 37.6201L12.618 36.2899L12.3071 32.7621Z" fill="#EBEBEB"/>
<path d="M3.30585 0H5.52479V2.22091H7.55466V0H9.77374V6.72548H7.55479V4.47341H5.52493V6.72548H3.30598L3.30585 0ZM12.6916 2.23033H10.7384V0H16.8653V2.23033H14.9109V6.72548H12.692V2.23033H12.6916ZM17.8377 0H20.1514L21.5746 2.36316L22.9965 0H25.3111V6.72548H23.1012V3.39197L21.5746 5.78324H21.5363L20.0088 3.39197V6.72548H17.8377V0ZM26.4154 0H28.635V4.50249H31.7555V6.72548H26.4153V0H26.4154Z" fill="black"/>
<path d="M17.4849 30.5503H22.8617L22.3547 36.2871L17.4848 37.6187V42.2206L26.4362 39.7075L26.5018 38.9601L27.528 27.3147L27.6345 26.1269H17.4849V30.5503ZM17.4849 21.5864V21.5972H28.0318L28.1193 20.6031L28.3184 18.3605L28.4227 17.1738H17.4849V21.5864Z" fill="white"/>
</g>
<defs>
<clipPath id="clip0_1_53">
<rect width="35" height="50" fill="white"/>
</clipPath>
</defs>
</svg>
